#!OML:ASF F:\VICON\USERDATA\INSTALL\rory3\rory3.ASF
:FULLY-SPECIFIED
:DEGREES
78
root 0.6884344145111403 17.83467869045946 46.1982708028685 -3.200344739087445 -1.618392805995281 1.8061988675323106
lfemur 0.9749663137458828 -3.37803161171994 -26.775624642745164
ltibia 24.045129948123893
lfoot -15.457416410436956 3.869311448865318
ltoes 1.892838034341945
rfemur -28.20680751836818 0.12373600910516647 20.31115219159242
rtibia 51.34093675019956
rfoot -9.069319590579557 -10.964489929111492
rtoes 2.610807031651243
lowerback 10.223284609728811 0.07802400685081945 -2.2770472260636323
upperback 0.8347759913142342 -0.12651358365647014 0.8676985404262332
thorax -4.831654738969645 -0.007907399156578454 2.3471215907244427
lowerneck -16.423028647417073 -2.7668916655617304 -3.6410326647253313
upperneck 20.57559698714588 -3.5157515102776697 2.3225567673039587
head 9.22182759065306 -1.6652314235389034 0.9075239582333564
lclavicle -1.9267570662835567e-15 1.6458685895941802e-16
lhumerus -25.040563104862386 -1.8766372940269898 82.8058940461774
lradius 24.453857212725293
lwrist 6.549212193474335
lhand -28.13657519776403 21.932540576365632
lfingers 7.1250199999999975
lthumb -1.5177570795921196 51.912165891267435
rclavicle -1.9267570662835567e-15 1.6458685895941802e-16
rhumerus -28.76478225751942 -15.726633696262857 -80.86468288096401
rradius 27.227007632382115
rwrist 4.361939874038734
rhand -16.769209272562044 22.426500525425013
rfingers 7.1250199999999975
rthumb 9.458079113370532 -7.23521790874991
79
root 0.6117684878960323 17.79992897855191 47.94674003852989 -2.4545763692183282 -0.5689889005030011 2.4765842136657397
lfemur 5.47496317702976 -3.048652462850669 -27.299830580980863
ltibia 19.76274039285321
lfoot -15.773203416065531 3.442515007675147
ltoes 0.45856980028885896
rfemur -28.826052822381904 2.265061737047615 18.79184592409216
rtibia 37.67541489530097
rfoot -9.568761584147774 -14.478698174926471
rtoes 1.0156230804241373
lowerback 9.92240348327221 -0.3578656745428258 -3.2328697986518993
upperback 0.75322950992814 -0.7965070729535386 0.9357099473270936
thorax -4.7110498798432845 -0.32225167133208155 3.0223838908697225
lowerneck -16.49628349745857 -2.780540185919407 -3.800791909688516
upperneck 20.442023340832314 -3.537826274371543 2.545437264790385
head 9.188500895153084 -1.6657691736970701 0.9896003213246293
lclavicle -1.7887978644511088e-15 2.5660727138465973e-16
lhumerus -22.281607012702384 -3.8242130201898883 82.6440052052946
lradius 26.480260390266043
lwrist 7.574241786899777
lhand -27.988676765634022 22.561405959259993
lfingers 7.1250199999999975
lthumb -1.374966192607528 52.54270475834583
rclavicle -1.7887978644511088e-15 2.5660727138465973e-16
rhumerus -29.42775551628504 -15.940670686674192 -80.61610501081564
rradius 26.811380729760074
rwrist 4.468067498548768
rhand -16.639816994261565 22.987133874590263
rfingers 7.1250199999999975
rthumb 9.582967165867972 -6.649670792443842
80
root 0.511190635667079 17.743214166172148 49.284293890643525 -1.7302644240389236 0.34030280791195233 3.0461931272479306
lfemur 10.066992220242689 -2.9667073104906514 -27.581477066122325
ltibia 16.00465204153992
lfoot -15.802627895987012 2.5393414948912643
ltoes -2.3274761913028357
rfemur -28.535681207783995 4.4655375897790455 17.388047382688427
rtibia 26.039978820720037
rfoot -9.613204108622131 -16.66501570028764
rtoes -0.6874257415450509
lowerback 9.54628121369589 -0.7261278389416487 -4.04641548247569
upperback 0.6731627179298786 -1.3624139881599215 1.0155585365409137
thorax -4.556472676068248 -0.5875952702688784 3.62213239793619
lowerneck -16.582547588189676 -2.7742391188147666 -3.8649524721507245
upperneck 20.36430764863188 -3.5388603161739005 2.6814458082021018
head 9.176681867131883 -1.6583254407043384 1.0373026793470848
lclavicle -1.6394664771165383e-15 3.562130667766888e-16
lhumerus -19.88565245743145 -5.100735824328851 82.38747031026892
lradius 28.2928130085764
lwrist 8.376615654074678
lhand -28.129411989417058 22.65148706358872
lfingers 7.1250199999999975
lthumb -1.5108963841160263 52.62800694140265
rclavicle -1.6394664771165383e-15 3.562130667766888e-16
rhumerus -30.088774462053408 -16.83129021198073 -80.05974613950131
rradius 25.979723616575196
rwrist 5.406554387943708
rhand -16.57573587512152 23.58387207310844
rfingers 7.1250199999999975
rthumb 9.644792494096741 -6.04396640805515
81
root 0.40474545555582025 17.672346434283725 49.913034318020124 -1.2746062561052063 0.9444678478454636 3.2166256523609547
lfemur 13.749602716734827 -3.359383662424105 -27.475360548632725
ltibia 14.515342884750112
lfoot -15.432547533218965 1.3420528378586047
ltoes -6.260503338345294
rfemur -27.94142944997304 5.716695626898427 16.959611945361377
rtibia 20.285432544145785
rfoot -8.989748182725144 -15.90436668093573
rtoes -2.189172143435305
lowerback 9.265028339636757 -0.981076053150793 -4.389569269488722
upperback 0.6192139206989444 -1.7251613953324765 1.1764619888289276
thorax -4.432850516796911 -0.7615528933563532 4.023152280584096
lowerneck -16.70272399634679 -2.7546953877191798 -3.8565371620730846
upperneck 20.403222798481966 -3.511097440165897 2.6641148983688296
head 9.213489480415388 -1.6459476983430985 1.037846195083474
lclavicle -1.4818288035709166e-15 4.613592549154077e-16
lhumerus -18.350597427955933 -5.604439543045735 82.23256943410045
lradius 29.717006510084516
lwrist 8.874009269329083
lhand -28.5835046724997 22.052352039286053
lfingers 7.1250199999999975
lthumb -1.9494167225958647 52.01922254697466
rclavicle -1.4818288035709166e-15 4.613592549154077e-16
rhumerus -30.74685992300301 -18.347336579066678 -79.11179264474156
rradius 24.818958968687095
rwrist 7.010025297336364
rhand -16.660437611391366 23.980210477048217
rfingers 7.1250199999999975
rthumb 9.56303919593574 -5.6564009892065075
